<svg width="316" height="24" viewBox="0 0 316 24" fill="none" xmlns="http://www.w3.org/2000/svg">
<path d="M155 22H161C166 22 168 20 168 15V9C168 4 166 2 161 2H155C150 2 148 4 148 9V15C148 20 150 22 155 22Z" stroke="#F06435" stroke-width="1.5" stroke-linecap="round" stroke-linejoin="round"/>
<path d="M153 12.16H155.68C156.39 12.16 156.87 12.7 156.87 13.35V14.84C156.87 15.49 156.39 16.03 155.68 16.03H154.19C153.875 16.0274 153.574 15.9011 153.351 15.6785C153.129 15.4559 153.003 15.1548 153 14.84V12.16ZM153 12.16C153 9.36997 153.52 8.89997 155.09 7.96997M159.14 12.16H161.82C162.53 12.16 163.01 12.7 163.01 13.35V14.84C163.01 15.49 162.53 16.03 161.82 16.03H160.33C160.015 16.0274 159.714 15.9011 159.491 15.6785C159.269 15.4559 159.143 15.1548 159.14 14.84V12.16ZM159.14 12.16C159.14 9.36997 159.66 8.89997 161.23 7.96997" stroke="#F06435" stroke-width="1.5" stroke-linecap="round" stroke-linejoin="round"/>
<path d="M211 14.5H315.5" stroke="#F06435"/>
<path d="M0 14.5H104.5" stroke="#F06435"/>
</svg>
