<?xml version="1.0" encoding="utf-8"?>
<!-- Generator: Adobe Illustrator 26.0.0, SVG Export Plug-In . SVG Version: 6.00 Build 0)  -->
<svg version="1.1" id="Layer_1" xmlns="http://www.w3.org/2000/svg" xmlns:xlink="http://www.w3.org/1999/xlink" x="0px" y="0px"
	 viewBox="0 0 2000 2000" style="enable-background:new 0 0 2000 2000;" xml:space="preserve">
<style type="text/css">
	.st0{fill:#EF6E43;}
	.st1{fill:none;stroke:#231F20;stroke-miterlimit:10;}
	.st2{fill:#231F20;stroke:#231F20;stroke-miterlimit:10;}
	.st3{fill:#191828;}
	.st4{fill:#FFF9F8;}
	.st5{fill:none;stroke:#999294;stroke-miterlimit:10;}
	.st6{fill:#999294;stroke:#999294;stroke-miterlimit:10;}
	.st7{fill:#FFFFFF;}
	.st8{fill:none;stroke:#EF6E43;stroke-miterlimit:10;}
	.st9{fill:none;stroke:#F49E87;stroke-miterlimit:10;}
	.st10{fill:#6D6D6D;stroke:#F49E87;stroke-miterlimit:10;}
	.st11{fill:#F4F4F4;}
	.st12{fill:#6D6D6D;}
</style>
<g>
	<polygon class="st0" points="1329.92,787.47 1306.94,827.28 1329.92,867.09 1375.87,867.09 1398.88,827.28 1375.87,787.47 	"/>
	<polygon class="st0" points="954.03,1438.52 999.98,1518.14 1045.97,1438.52 1000.02,1358.9 	"/>
	<polygon class="st0" points="973.95,1313.78 775.96,970.84 684.02,970.84 929.42,1395.9 973.95,1318.76 	"/>
	<polygon class="st0" points="929.42,1151.36 975.37,1071.75 823.54,808.79 777.59,888.41 	"/>
	<polygon class="st0" points="941.73,683.72 1107.5,683.72 999.99,869.92 823.54,564.32 777.59,643.91 977.01,989.32 
		1022.99,989.32 1315.95,481.86 1224.05,481.86 1153.48,604.1 895.77,604.1 	"/>
	<polygon class="st0" points="1365.2,481.86 954.03,1194.02 1070.58,1395.88 1351.27,909.73 1259.33,909.73 1070.58,1236.66 
		1045.97,1194.02 1411.18,561.45 1460.41,561.45 1354.53,744.82 1446.47,744.82 1598.3,481.86 	"/>
	<polygon class="st0" points="680.75,805.95 821.91,805.95 775.93,726.34 634.8,726.34 539.59,561.45 680.75,561.45 634.8,481.86 
		401.7,481.86 624.1,867.09 716.07,867.09 	"/>
	<polygon class="st0" points="963.08,561.45 917.11,481.86 684.04,481.86 730,561.45 	"/>
</g>
</svg>
