<svg id="Layer_1" data-name="Layer 1" xmlns="http://www.w3.org/2000/svg" viewBox="0 0 300 150"><defs><style>.cls-1{fill:#2047c6;}.cls-2{fill:#fefefe;}.cls-3{fill:#264de3;}.cls-4{fill:#2965f0;}.cls-5{fill:#eaeaea;}</style></defs><rect class="cls-1" x="-1.18" y="-0.15" width="301.91" height="150"/><path class="cls-2" d="M155.43,19.35c0,1.36,0,2.72,0,4.08,0,.32-.19.26-.37.26H150c-.33,0-.67,0-1,0s-.5,0-.5.44.22.43.53.43h5.68c.73,0,.73,0,.73.71q0,4.41,0,8.82c0,.36-.1.44-.46.44H144c-.38,0-.45-.11-.45-.46,0-1.23,0-2.46,0-3.69,0-.36.11-.42.44-.42h6.12c.34,0,.41-.1.39-.41s0-.48-.39-.47c-2,0-4.05,0-6.07,0-.42,0-.49-.13-.49-.51,0-3.08,0-6.16,0-9.25Z"/><path class="cls-2" d="M169.76,19.35c0,1.31,0,2.61,0,3.91,0,.33-.06.44-.42.44-2,0-4.08,0-6.12,0-.37,0-.41.14-.41.45s.06.44.42.44c2,0,4.08,0,6.12,0,.32,0,.42.07.41.4,0,3.05,0,6.11,0,9.16,0,.32-.06.42-.39.42H158.25c-.31,0-.42-.06-.41-.4,0-1.25,0-2.49,0-3.74,0-.38.12-.44.46-.43h6c.14,0,.37.1.42-.1a1.42,1.42,0,0,0,0-.68c0-.16-.25-.08-.39-.08-2,0-4,0-6,0-.36,0-.49-.06-.49-.46,0-3.1,0-6.2,0-9.3Z"/><path class="cls-2" d="M141.19,19.35c0,1.52,0,3,0,4.56,0,.35-.1.43-.44.43h-6.08c-.32,0-.44.05-.44.41q0,2.09,0,4.17c0,.37.12.42.45.42h6.07c.34,0,.44.08.44.42,0,1.39,0,2.78,0,4.17,0,.29,0,.4-.37.4-3.73,0-7.47,0-11.2,0-.24,0-.36,0-.36-.32q0-7.22,0-14.43a1.55,1.55,0,0,1,0-.21Z"/><path class="cls-3" d="M150.06,41.16h38.73c.54,0,.54,0,.49.53-.47,5.35-1,10.69-1.44,16q-.59,6.56-1.16,13.11l-1.26,14.09c-.37,4.07-.72,8.13-1.08,12.2q-.63,7.05-1.27,14.1c-.29,3.22-.58,6.45-.85,9.68a.55.55,0,0,1-.49.58q-15.28,4.22-30.55,8.48a4.3,4.3,0,0,1-2.36,0q-15.23-4.27-30.47-8.47a.55.55,0,0,1-.49-.57c-.26-3.09-.54-6.17-.82-9.26q-.54-6.14-1.09-12.28c-.31-3.37-.6-6.75-.9-10.12Q114.5,83.14,114,77l-.9-10.08q-.55-6.18-1.1-12.36-.45-5-.89-10c-.09-.94-.18-1.88-.25-2.81-.06-.72-.09-.59.52-.59Zm0,46.16V103a.72.72,0,0,1-.21,0l-10.51-2.83c-.25-.07-.3-.2-.32-.43-.2-2.36-.42-4.73-.62-7.09,0-.31-.12-.41-.44-.41q-4.55,0-9.07,0c-.36,0-.41.12-.38.43.11,1.11.2,2.22.3,3.33q.51,5.59,1,11.19a.6.6,0,0,0,.52.64q9.87,2.72,19.72,5.47v9.64a2.25,2.25,0,0,1,0,.26c0,.22.09.26.3.2l6.58-1.82,9.73-2.72c3.06-.85,6.11-1.69,9.17-2.52.18,0,.29-.13.27-.32a11.3,11.3,0,0,1,.1-1.42c0-.75.11-1.49.18-2.24l.33-3.64c.07-.74.13-1.47.19-2.2.11-1.16.23-2.31.33-3.47.07-.78.12-1.55.19-2.32.11-1.22.23-2.44.34-3.65l.18-2.2c.11-1.18.23-2.37.34-3.56.07-.79.12-1.58.19-2.36.1-1.15.22-2.29.33-3.44.07-.78.11-1.57.19-2.36.1-1.13.22-2.26.33-3.39.07-.8.1-1.61.19-2.41.14-1.23.23-2.46.33-3.69.06-.72.12-1.43.19-2.15.11-1.14.23-2.29.33-3.43.07-.79.12-1.58.19-2.37.1-1.23.21-2.46.34-3.69.07-.74.13-1.49.19-2.23.08-1.19.21-2.38.32-3.57.07-.76.12-1.52.19-2.28.11-1.14.23-2.28.33-3.43.07-.79.08-1.58.21-2.36.06-.4,0-.47-.38-.47H150.48c-.34,0-.45.09-.44.44,0,3.14,0,6.28,0,9.42l-.52,0h-22c-.61,0-1.21,0-1.82,0-.28,0-.38.06-.35.37.28,3,.55,5.93.83,8.89,0,.58,0,.58.65.58h22.61l.56,0v10l-.56,0H127.65c-.41,0-.5.11-.46.51q.42,4.4.78,8.81c0,.41.13.53.55.53h21Z"/><path class="cls-4" d="M150.05,57.53c0-3.14,0-6.28,0-9.42,0-.35.1-.44.44-.44h31.26c.36,0,.44.07.38.47-.13.78-.14,1.57-.21,2.36-.1,1.15-.22,2.29-.33,3.43-.07.76-.12,1.52-.19,2.28-.11,1.19-.24,2.38-.32,3.57-.06.74-.12,1.49-.19,2.23-.13,1.23-.24,2.46-.34,3.69-.07.79-.12,1.58-.19,2.37-.1,1.14-.22,2.29-.33,3.43-.07.72-.13,1.43-.19,2.15-.1,1.23-.19,2.46-.33,3.69-.09.8-.12,1.61-.19,2.41-.11,1.13-.23,2.26-.33,3.39-.08.79-.12,1.58-.19,2.36-.11,1.15-.23,2.29-.33,3.44-.07.78-.12,1.57-.19,2.36-.11,1.19-.23,2.38-.34,3.56l-.18,2.2c-.11,1.21-.23,2.43-.34,3.65-.07.77-.12,1.54-.19,2.32-.1,1.16-.22,2.31-.33,3.47-.06.73-.12,1.46-.19,2.2l-.33,3.64c-.07.75-.15,1.49-.18,2.24a11.3,11.3,0,0,0-.1,1.42c0,.19-.09.27-.27.32-3.06.83-6.11,1.67-9.17,2.52l-9.73,2.72-6.58,1.82c-.21.06-.3,0-.3-.2a2.25,2.25,0,0,0,0-.26v-9.64a.11.11,0,0,0,0,0l5.86-1.61,13.84-3.83c.23-.07.43-.1.46-.45q.61-7.11,1.27-14.23l1.38-15.48,1.74-19.5c.05-.57.05-.57-.5-.57H150.48l-.43,0Z"/><path class="cls-5" d="M150.05,113.23a.11.11,0,0,1,0,0q-9.85-2.75-19.72-5.47a.6.6,0,0,1-.52-.64q-.48-5.6-1-11.19c-.1-1.11-.19-2.22-.3-3.33,0-.31,0-.43.38-.43q4.53,0,9.07,0c.32,0,.42.1.44.41.2,2.36.42,4.73.62,7.09,0,.23.07.36.32.43L149.84,103a.72.72,0,0,0,.21,0,.06.06,0,0,1,0,0C150,106.43,150.05,109.83,150.05,113.23Z"/><path class="cls-5" d="M150.05,67.41l-.56,0H126.88c-.6,0-.6,0-.65-.58-.28-3-.55-5.93-.83-8.89,0-.31.07-.37.35-.37.61,0,1.21,0,1.82,0h22l.52,0v9.84S150.05,67.4,150.05,67.41Z"/><path class="cls-5" d="M150.05,87.32l-.56,0h-21c-.42,0-.51-.12-.55-.53q-.36-4.41-.78-8.81c0-.4,0-.51.46-.51h21.84l.56,0a.09.09,0,0,1,0,0v9.79A.06.06,0,0,1,150.05,87.32Z"/><path class="cls-4" d="M150.05,103V87.32a.06.06,0,0,0,0,0l.52,0c3.7,0,7.4,0,11.1,0,.42,0,.47.13.43.49-.1.85-.16,1.7-.24,2.55-.28,3.14-.57,6.28-.84,9.42a.39.39,0,0,1-.35.4c-1,.25-1.92.52-2.88.78L150,103A.06.06,0,0,0,150.05,103Z"/><path class="cls-4" d="M150.05,77.44v-10s0,0,0,0l.52,0c4.29,0,8.59,0,12.88,0,.36,0,.43.1.4.44-.28,3.07-.57,6.14-.82,9.21,0,.4-.19.44-.53.44-4,0-8,0-11.93,0l-.52,0A.09.09,0,0,0,150.05,77.44Z"/><path class="cls-2" d="M150,77.49l.52,0c4,0,7.95,0,11.93,0,.34,0,.5,0,.53-.44.25-3.07.54-6.14.82-9.21,0-.34,0-.44-.4-.44-4.29,0-8.59,0-12.88,0l-.52,0V57.58l.43,0H174.1c.55,0,.55,0,.5.57l-1.74,19.5-1.38,15.48q-.64,7.13-1.27,14.23c0,.35-.23.38-.46.45l-13.84,3.83-5.86,1.61c0-3.4,0-6.8,0-10.2l7.74-2.1c1-.26,1.92-.53,2.88-.78a.39.39,0,0,0,.35-.4c.27-3.14.56-6.28.84-9.42.08-.85.14-1.7.24-2.55,0-.36,0-.49-.43-.49-3.7,0-7.4,0-11.1,0l-.52,0Z"/></svg>