<svg id="Layer_1" data-name="Layer 1" xmlns="http://www.w3.org/2000/svg" xmlns:xlink="http://www.w3.org/1999/xlink" viewBox="0 0 300 150"><defs><style>.cls-1{fill:#f9f9f9;}.cls-2{isolation:isolate;opacity:0.54;}.cls-3{fill:#ffa000;}.cls-4{fill:#f57c00;}.cls-5{fill:#ffca28;}.cls-6{fill:#fff;fill-opacity:0.2;}.cls-7{fill:url(#linear-gradient);}</style><linearGradient id="linear-gradient" x1="1.01" y1="150.65" x2="1.56" y2="150.26" gradientTransform="matrix(95, 0, 0, -131, -70, 19787.97)" gradientUnits="userSpaceOnUse"><stop offset="0" stop-color="#fff" stop-opacity="0.1"/><stop offset="0.14" stop-color="#fff" stop-opacity="0.08"/><stop offset="0.61" stop-color="#fff" stop-opacity="0.02"/><stop offset="1" stop-color="#fff" stop-opacity="0"/></linearGradient></defs><rect class="cls-1" x="-1.18" y="-0.15" width="301.91" height="150"/><path class="cls-2" d="M100.88,93.28H96.3V57.91h20.79v4.35H100.88V73.87h14.63v4.24H100.88V93.28ZM125.7,63a3.25,3.25,0,0,1-4.09.41,3.2,3.2,0,0,1-1.2-3.9,3.25,3.25,0,0,1,6.24,1.22,3.07,3.07,0,0,1-1,2.27Zm0,30.28h-4.57V69.08h4.57v24.2Zm10,0h-4.58V69.08h4.38v4h.2a6.17,6.17,0,0,1,2.86-3.26,8.26,8.26,0,0,1,4.21-1.29,8.74,8.74,0,0,1,3.43.6l-1.74,4.24a7,7,0,0,0-2.44-.35,6,6,0,0,0-4.41,2A7,7,0,0,0,135.75,80V93.28Zm23,.77a11.77,11.77,0,0,1-9-3.66,12.85,12.85,0,0,1-3.46-9.21,13.28,13.28,0,0,1,3.35-9.09,11,11,0,0,1,8.59-3.81A11.28,11.28,0,0,1,167,71.79q3.26,3.51,3.26,9.39l-.05.84H150.93a8.19,8.19,0,0,0,2.46,5.78,7.52,7.52,0,0,0,5.3,2.13c3.28,0,5.5-1.39,6.66-4.15l4.09,1.68a10.93,10.93,0,0,1-3.93,4.71,11.63,11.63,0,0,1-6.72,1.88Zm6.57-15.82a6.33,6.33,0,0,0-1.91-4,6.77,6.77,0,0,0-5.26-1.84A6.64,6.64,0,0,0,153.78,74a8.12,8.12,0,0,0-2.56,4.25l14.14,0Zm21.42,15.82a10.51,10.51,0,0,1-5-1.16,8.51,8.51,0,0,1-3.31-3h-.2v3.35h-4.38V57.91h4.58V69.08l-.2,3.35h.2a8.51,8.51,0,0,1,3.31-3,10.39,10.39,0,0,1,5-1.18,10.76,10.76,0,0,1,8.16,3.7,14,14,0,0,1,0,18.37,10.7,10.7,0,0,1-8.16,3.69ZM186,89.9a7.31,7.31,0,0,0,5.48-2.4,9.94,9.94,0,0,0,0-12.69,7.51,7.51,0,0,0-11,0,8.83,8.83,0,0,0-2.26,6.37,8.89,8.89,0,0,0,2.28,6.39,7.34,7.34,0,0,0,5.49,2.37l0,0Zm24,4.15a9.62,9.62,0,0,1-6.49-2.23A7.36,7.36,0,0,1,200.93,86a7.24,7.24,0,0,1,3.09-6.2,12.54,12.54,0,0,1,7.61-2.24,13.08,13.08,0,0,1,6.6,1.48V78.3A5.36,5.36,0,0,0,216.39,74a6.59,6.59,0,0,0-4.52-1.59,7.06,7.06,0,0,0-3.61.94A4.81,4.81,0,0,0,206.05,76l-4.18-1.78a9.53,9.53,0,0,1,3.34-4,10.64,10.64,0,0,1,6.57-1.86,11.42,11.42,0,0,1,7.77,2.7,9.51,9.51,0,0,1,3.09,7.66V93.28h-4.39V89.92h-.2A9,9,0,0,1,210,94Zm.75-4.15a7.48,7.48,0,0,0,5.15-2.08,6.49,6.49,0,0,0,2.34-5c-1.3-1.06-3.24-1.58-5.83-1.58a7.58,7.58,0,0,0-5,1.43,4.27,4.27,0,0,0-1.69,3.35,3.24,3.24,0,0,0,1.55,2.82,6.25,6.25,0,0,0,3.51,1v0Zm25.32,4.15a11,11,0,0,1-6.74-2,11.61,11.61,0,0,1-3.88-4.94l4.08-1.68A6.74,6.74,0,0,0,236.17,90a6.06,6.06,0,0,0,3.49-.94A2.86,2.86,0,0,0,241,86.59q0-2.37-3.34-3.21l-4.92-1.18A11.78,11.78,0,0,1,228.34,80a5.38,5.38,0,0,1-2.09-4.47,6.07,6.07,0,0,1,2.86-5.2,11.54,11.54,0,0,1,6.79-2,11.42,11.42,0,0,1,5.77,1.46,8.22,8.22,0,0,1,3.63,4.17l-4,1.62q-1.33-3.21-5.57-3.21a6.52,6.52,0,0,0-3.43.84,2.55,2.55,0,0,0-1.4,2.27q0,2.07,3.24,2.82L239,79.39a9,9,0,0,1,5.08,2.7,6.55,6.55,0,0,1,1.64,4.34A6.71,6.71,0,0,1,243,91.86a10.57,10.57,0,0,1-6.91,2.19Zm24.63,0a11.8,11.8,0,0,1-9-3.66,12.9,12.9,0,0,1-3.46-9.23,13.24,13.24,0,0,1,3.36-9.09,10.89,10.89,0,0,1,8.59-3.78,11.25,11.25,0,0,1,8.69,3.5q3.24,3.51,3.26,9.39l-.05.84H252.86a8.19,8.19,0,0,0,2.46,5.78,7.51,7.51,0,0,0,5.31,2.12q4.94,0,6.67-4.15l4.08,1.68a10.86,10.86,0,0,1-3.93,4.71,11.56,11.56,0,0,1-6.72,1.89Zm6.57-15.82a6.4,6.4,0,0,0-1.92-4,6.76,6.76,0,0,0-5.25-1.84,6.61,6.61,0,0,0-4.4,1.58,8.05,8.05,0,0,0-2.56,4.25l14.13,0Z"/><path class="cls-3" d="M27.84,96l8.42-53.88a1.56,1.56,0,0,1,2.91-.49l8.71,16.24,3.47-6.61a1.55,1.55,0,0,1,2.75,0L77.6,96Z"/><path class="cls-4" d="M56.93,75,47.87,57.85,27.84,96Z"/><path class="cls-5" d="M77.6,96,71.15,56.08a1.57,1.57,0,0,0-1.06-1.22,1.54,1.54,0,0,0-1.57.38L27.84,96l22.51,12.62a4.66,4.66,0,0,0,4.55,0L77.6,96Z"/><path class="cls-6" d="M71.15,56.08a1.57,1.57,0,0,0-1.06-1.22,1.54,1.54,0,0,0-1.57.38l-8.08,8.1L54.1,51.25a1.56,1.56,0,0,0-2.76,0l-3.47,6.61L39.16,41.62a1.55,1.55,0,0,0-2.9.5L27.84,96h0l0,0,.22.11L68.51,55.64a1.54,1.54,0,0,1,1.57-.38,1.56,1.56,0,0,1,1.06,1.22L77.54,96l.06,0L71.15,56.08ZM27.92,95.92,36.26,42.5a1.56,1.56,0,0,1,2.91-.5l8.71,16.24,3.47-6.61a1.55,1.55,0,0,1,2.75,0l6.22,11.83L27.91,95.92Z"/><path id="b" class="cls-7" d="M71.08,56.09a1.55,1.55,0,0,0-1-1.22,1.57,1.57,0,0,0-1.57.38l-8,8.09L54.09,51.26a1.55,1.55,0,0,0-2.74,0l-3.46,6.61L39.21,41.63a1.53,1.53,0,0,0-1.63-.79,1.56,1.56,0,0,0-1.27,1.29L27.93,96l22.43,12.61a4.63,4.63,0,0,0,4.53,0L77.51,96,71.08,56.09Z"/></svg>