<svg id="Layer_1" data-name="Layer 1" xmlns="http://www.w3.org/2000/svg" viewBox="0 0 300 150"><defs><style>.cls-1{fill:#d14124;}.cls-2{fill:#fff;}.cls-3{fill:#e44d27;}.cls-4{fill:#f1662a;}.cls-5{fill:#ebeaea;}</style></defs><rect class="cls-1" x="-1.18" y="-0.15" width="301.91" height="150"/><path class="cls-2" d="M166.09,24.55c0,2.15,0,4.3,0,6.45v6.74c0,.4,0,.4-.4.4h-3.79c-.33,0-.34,0-.34-.35V31.6l-.09,0c-1,1.55-2,3.14-3.09,4.73l-3.09-4.76a.78.78,0,0,0-.08.47v5.71c0,.47,0,.43-.41.43H151c-.19,0-.27-.07-.25-.26s0-.23,0-.34V25.09c0-.18,0-.36,0-.54h4.83c0,.12.05.19.1.27.86,1.41,1.71,2.82,2.57,4.22.05.08.07.19.19.22s.11-.11.15-.17l2.6-4.27c.05-.08.14-.15.1-.27Z"/><path class="cls-2" d="M134.29,24.55a.88.88,0,0,0,0,.53q0,6.26,0,12.5a1.21,1.21,0,0,1,0,.56h-4.12c-.35,0-.35,0-.36-.34V33.69a.54.54,0,0,0-.4-.07H126c-.37,0-.38,0-.38.36v3.75a.67.67,0,0,1,0,.39l-.18,0h-4c-.34,0-.34,0-.35-.35V24.55h4.53v4.09c0,.41,0,.42.39.42h3.4c.37,0,.38,0,.38-.38,0-1.11,0-2.23,0-3.35a2.28,2.28,0,0,0,0-.78Z"/><path class="cls-2" d="M148.76,24.55c0,1.4,0,2.79,0,4.19,0,.34,0,.35-.34.35h-3.25c-.46,0-.43,0-.43.42v8a1.51,1.51,0,0,0,0,.3c0,.26-.08.32-.33.32h-3.84c-.38,0-.37,0-.37-.38V29.44c0-.35,0-.35-.34-.35h-3.1a2.8,2.8,0,0,0-.29,0c-.21,0-.25-.08-.25-.26,0-.83,0-1.67,0-2.51,0-.59,0-1.18,0-1.77Z"/><path class="cls-2" d="M172.88,24.55c0,.17,0,.33,0,.49v8.07a1.93,1.93,0,0,1,0,.24c0,.24.07.31.31.31h5.7c.41,0,.41,0,.41.39v3.69c0,.4,0,.4-.39.4H168.55c-.16,0-.24,0-.22-.22v-13c0-.12,0-.23,0-.35Z"/><path class="cls-3" d="M150.09,44.35h35c.67,0,.66,0,.59.66-.12,1.24-.22,2.48-.33,3.72-.15,1.73-.31,3.46-.47,5.2s-.28,3.29-.43,4.94l-.45,5c-.12,1.27-.22,2.55-.33,3.82-.15,1.67-.31,3.33-.46,5l-.42,4.8c-.15,1.71-.31,3.43-.46,5.14s-.29,3.2-.43,4.8-.31,3.43-.46,5.14l-.42,4.81c-.16,1.71-.31,3.42-.47,5.14l-.42,4.75c-.15,1.73-.31,3.46-.46,5.19-.12,1.32-.23,2.65-.34,4-.07.82-.07.82-.85,1l-28.25,7.83a.83.83,0,0,1-.47,0l-28.5-7.9c-.47-.13-.46-.13-.5-.61-.15-1.7-.31-3.4-.46-5.09l-.33-3.83-.45-5c-.15-1.6-.28-3.2-.43-4.8s-.31-3.43-.46-5.14l-.42-4.81c-.16-1.71-.31-3.42-.47-5.14l-.42-4.8c-.15-1.71-.31-3.43-.46-5.14l-.42-4.8c-.16-1.72-.31-3.43-.47-5.15l-.42-4.8c-.15-1.71-.31-3.43-.46-5.14s-.29-3.2-.43-4.8l-.3-3.48c0-.11,0-.23,0-.34a.16.16,0,0,1,.18-.18h35.53Zm0,56.19h-.15L140.36,98c-.27-.07-.32-.23-.34-.46l-.21-2.5-.33-3.82c0-.43,0-.43-.47-.43-1,0-1.93,0-2.9,0-1.76,0-3.51,0-5.27,0-.39,0-.39,0-.36.38l.45,4.75.72,8.23c.06.66,0,.66.7.84L150,109.91v9.23l.63-.15,4.62-1.3c1.64-.46,3.28-.89,4.91-1.35l6-1.7,7-2c.43-.12.52-.23.55-.67a3.83,3.83,0,0,1,0-.68,11.64,11.64,0,0,0,.15-1.66c.06-.52.12-1.06.15-1.6a5.72,5.72,0,0,1,.1-1.17,12.84,12.84,0,0,0,.14-1.51c.06-.52.12-1.06.15-1.6a8.29,8.29,0,0,1,.1-1.32c.11-.5.09-1,.15-1.5s.12-1.07.14-1.61,0-.85.1-1.27q.12-.94.18-1.89c0-.47.07-.95.12-1.41s0-.76.09-1.12a16.58,16.58,0,0,0,.17-1.7c.05-.51.09-1,.14-1.51s0-.82.09-1.22a16.28,16.28,0,0,0,.16-1.7c.05-.5.1-1,.14-1.51s0-.75.09-1.12a17.27,17.27,0,0,0,.17-1.75c0-.52.09-1,.14-1.56a7,7,0,0,1,.09-1.12,12.49,12.49,0,0,0,.15-1.5l.15-1.61a9.65,9.65,0,0,1,.09-1.32,13.33,13.33,0,0,0,.15-1.55c.06-.53.11-1.07.15-1.61a9.87,9.87,0,0,1,.1-1.21A15.53,15.53,0,0,0,177.5,70c0-.53.1-1.07.14-1.6a6.86,6.86,0,0,1,.09-1.12,10.3,10.3,0,0,0,.15-1.56l.15-1.6a11.55,11.55,0,0,1,.1-1.32c.1-.53.1-1.07.15-1.6l.15-1.56a9.08,9.08,0,0,1,.09-1.17,13.16,13.16,0,0,0,.16-1.65c0-.54.1-1.07.14-1.61a9.08,9.08,0,0,1,.09-1.17c.12-.53.08-1.07.17-1.6s.11-1.2.18-1.8c0-.25,0-.3-.28-.32H150.53c-.48,0-.49,0-.49.48v8.42l-.63,0H127.86c-.15,0-.24,0-.22.23,0,.34.06.68.09,1,.15,1.7.31,3.4.46,5.09l.33,3.63.45,5c.12,1.24.22,2.48.33,3.72.16,1.7.31,3.39.47,5.09.09,1,.19,2,.27,2.94,0,.24.11.31.33.29s.23,0,.35,0h18.74l.59,0Z"/><path class="cls-4" d="M150,59.25V50.83c0-.48,0-.48.49-.48H179c.27,0,.31.07.28.32-.07.6-.09,1.21-.18,1.8s-.05,1.07-.17,1.6a9.08,9.08,0,0,0-.09,1.17c0,.54-.11,1.07-.14,1.61a13.16,13.16,0,0,1-.16,1.65,9.08,9.08,0,0,0-.09,1.17l-.15,1.56c-.05.53-.05,1.07-.15,1.6a11.55,11.55,0,0,0-.1,1.32l-.15,1.6a10.3,10.3,0,0,1-.15,1.56,6.86,6.86,0,0,0-.09,1.12c0,.53-.11,1.07-.14,1.6a15.53,15.53,0,0,1-.16,1.66,9.87,9.87,0,0,0-.1,1.21c0,.54-.09,1.08-.15,1.61a13.33,13.33,0,0,1-.15,1.55,9.65,9.65,0,0,0-.09,1.32L176.7,79a12.49,12.49,0,0,1-.15,1.5,7,7,0,0,0-.09,1.12c-.05.52-.11,1-.14,1.56a17.27,17.27,0,0,1-.17,1.75c-.07.37-.05.75-.09,1.12s-.09,1-.14,1.51a16.28,16.28,0,0,1-.16,1.7c-.08.4,0,.81-.09,1.22s-.09,1-.14,1.51a16.58,16.58,0,0,1-.17,1.7c-.07.36,0,.74-.09,1.12s-.09.94-.12,1.41q-.06.95-.18,1.89c-.05.42-.08.85-.1,1.27s-.09,1.08-.14,1.61,0,1-.15,1.5a8.29,8.29,0,0,0-.1,1.32c0,.54-.09,1.08-.15,1.6a12.84,12.84,0,0,1-.14,1.51,5.72,5.72,0,0,0-.1,1.17c0,.54-.09,1.08-.15,1.6a11.64,11.64,0,0,1-.15,1.66,3.83,3.83,0,0,0,0,.68c0,.44-.12.55-.55.67l-7,2-6,1.7c-1.63.46-3.27.89-4.91,1.35l-4.62,1.3-.63.15v-9.28c.16,0,.32-.07.48-.12l8.37-2.32c3-.84,6.06-1.69,9.09-2.52a.42.42,0,0,0,.38-.46c0-.82.14-1.63.21-2.45.18-2,.37-4,.55-6,.15-1.65.28-3.3.43-5,.21-2.35.44-4.69.65-7,.18-2,.35-4.09.53-6.13,0-.55,0-.55-.49-.55H150.57a1.41,1.41,0,0,0-.54,0,.2.2,0,0,0,0-.07v-1q0-4.05,0-8.11s0,0,0-.06l.49,0h20.82c.18,0,.26-.06.27-.25,0-.38.07-.75.11-1.13.21-2.3.44-4.6.64-6.9.07-.72.12-.63-.58-.63H150.58l-.54,0A0,0,0,0,0,150,59.25Z"/><path class="cls-5" d="M150.05,86.3l-.59,0H130.72c-.12,0-.23,0-.35,0s-.31,0-.33-.29c-.08-1-.18-2-.27-2.94-.16-1.7-.31-3.39-.47-5.09-.11-1.24-.21-2.48-.33-3.72l-.45-5-.33-3.63c-.15-1.69-.31-3.39-.46-5.09,0-.34,0-.68-.09-1,0-.19.07-.23.22-.23h21.55l.63,0a0,0,0,0,1,0,0v8.87s0,0,0,.06a1.08,1.08,0,0,0-.44,0H137.9c-.49,0-.49,0-.44.5v0l.57,6.32c.06.67.13,1.33.18,2,0,.21.1.3.31.29H149.6l.44,0a.2.2,0,0,1,0,.07q0,4.42,0,8.87Z"/><path class="cls-5" d="M150.05,109.86v0L132.35,105c-.65-.18-.64-.18-.7-.84l-.72-8.23-.45-4.75c0-.37,0-.38.36-.38,1.76,0,3.51,0,5.27,0,1,0,1.94,0,2.9,0,.42,0,.43,0,.47.43l.33,3.82.21,2.5c0,.23.07.39.34.46l9.54,2.55h.15v1.52Q150.06,106,150.05,109.86Z"/><path class="cls-4" d="M150.05,100.54V86.26c.19,0,.39,0,.59,0h10.18c.21,0,.25.09.23.27,0,.36-.07.72-.1,1.08-.15,1.65-.31,3.3-.45,5s-.29,3.26-.43,4.9c0,.41-.05.42-.44.52L150,100.58Z"/><path class="cls-2" d="M150,100.58,159.62,98c.39-.1.4-.11.44-.52.14-1.64.28-3.27.43-4.9s.3-3.3.45-5c0-.36.06-.72.1-1.08,0-.18,0-.28-.23-.27H150.63c-.2,0-.4,0-.59,0q0-4.44,0-8.87a1.41,1.41,0,0,1,.54,0h19.68c.54,0,.54,0,.49.55-.18,2-.35,4.09-.53,6.13-.21,2.35-.44,4.69-.65,7-.15,1.65-.28,3.3-.43,5-.18,2-.37,4-.55,6-.07.82-.16,1.63-.21,2.45a.42.42,0,0,1-.38.46c-3,.83-6.06,1.68-9.09,2.52l-8.37,2.32c-.16.05-.32.08-.48.12q0-3.9,0-7.8Z"/><path class="cls-2" d="M150,68.17V59.3l.54,0h21.21c.7,0,.65-.09.58.63-.2,2.3-.43,4.6-.64,6.9,0,.38-.08.75-.11,1.13,0,.19-.09.26-.27.25H150.53Z"/><path class="cls-3" d="M150,77.32l-.44,0H138.53c-.21,0-.29-.08-.31-.29-.05-.67-.12-1.33-.18-2l-.57-6.32v0c-.05-.49-.05-.5.44-.5h11.71a1.08,1.08,0,0,1,.44,0q0,4.06,0,8.11Z"/></svg>