<svg id="Layer_1" data-name="Layer 1" xmlns="http://www.w3.org/2000/svg" viewBox="0 0 300 150"><defs><style>.cls-1{fill:#f0db4f;}</style></defs><rect class="cls-1" x="-1.18" y="-0.15" width="301.91" height="150"/><path d="M150.27,89.48l8-4.66c.19.29.36.54.53.78a10.66,10.66,0,0,0,6.25,4.84,10.28,10.28,0,0,0,6.53-.27,4.48,4.48,0,0,0,3.08-3.63A4.32,4.32,0,0,0,172.61,82c-1.61-1-3.33-1.77-5-2.59-2.05-1-4.19-1.81-6.18-2.91a19.34,19.34,0,0,1-4.19-3c-4-4-4.88-8.87-3.32-14.09s5.45-7.8,10.57-8.72a18,18,0,0,1,10.16.93,14.28,14.28,0,0,1,7,6.48c0,.06,0,.13.07.26l-7.61,4.89c-.38-.55-.72-1.08-1.1-1.58a6.19,6.19,0,0,0-6.75-2.43,3.78,3.78,0,0,0-3.07,2.84,4.16,4.16,0,0,0,1.08,4.37A9.47,9.47,0,0,0,166.51,68c2.06,1,4.16,1.88,6.24,2.81a35.09,35.09,0,0,1,7,4.1c6.37,4.94,6,15,1.88,19.54A14.72,14.72,0,0,1,173.47,99a22.8,22.8,0,0,1-16.38-2.23,17.06,17.06,0,0,1-6.52-6.72C150.48,89.91,150.4,89.73,150.27,89.48Z"/><path d="M115.33,90.54l8-4.86a7.82,7.82,0,0,0,.43.67,24.93,24.93,0,0,0,2.1,2.85,6.12,6.12,0,0,0,6.85.93,3.73,3.73,0,0,0,1.9-2.64,17.74,17.74,0,0,0,.34-3.33q0-15.89,0-31.78c0-.2,0-.4,0-.6-.09-.63.12-.88.82-.86,2.08,0,4.16,0,6.25,0,.72,0,1.45,0,2.17,0,.56,0,.71.19.7.72,0,1.16,0,2.32,0,3.49V84.23a21.35,21.35,0,0,1-.74,6,11.75,11.75,0,0,1-8.56,8.57,18.09,18.09,0,0,1-14.33-1.51A14.93,14.93,0,0,1,115.33,90.54Z"/></svg>