<svg id="Layer_1" data-name="Layer 1" xmlns="http://www.w3.org/2000/svg" viewBox="0 0 300 150"><defs><style>.cls-1{fill:#f9f9f9;}</style></defs><rect class="cls-1" width="300" height="150"/><path d="M75.13,65.75V91.08h-5.5V58.81H76a1,1,0,0,1,.9.41q5.5,6.87,11,13.71L98.66,86.24l3.42,4.24.28.33V58.86h28V64H108v8.29h18v5.18H108V86h22.34V91.1H96.21a1.16,1.16,0,0,1-1-.48Q87.49,81,79.73,71.43l-4.28-5.32Z"/><path d="M170.41,91.14h-6.75a1.1,1.1,0,0,1-.78-.36l-11.29-14q-5.86-7.26-11.71-14.53l-2.73-3.4c.28,0,.45-.05.63-.05h6a1.06,1.06,0,0,1,.95.45q4.35,5.43,8.71,10.83c.1.12.2.22.34.36l3.49-4.33q2.79-3.47,5.59-6.91a.83.83,0,0,1,.54-.33h6.71c.06,0,.11,0,.23.1l-2.24,2.78-9.58,11.9c-.37.46-1,1-1,1.44s.63.93,1,1.39l11.37,14.09Z"/><path d="M193.35,91.09h-5.57V64h-11.3V58.84h27.94V64H193.35Z"/><path d="M137.09,91.17l11.1-13.77,1.67,2c.57.71,1.16,1.42,1.71,2.15a.7.7,0,0,1,0,.63q-3.45,4.32-7,8.62a1,1,0,0,1-.67.34h-6.53Z"/><path d="M219.9,86.83h2.29a3.21,3.21,0,0,0,4.07,2,3.41,3.41,0,0,0,.61-.29,1.72,1.72,0,0,0,1-1.56,1.47,1.47,0,0,0-1.1-1.38c-.89-.31-1.81-.51-2.7-.81a13.84,13.84,0,0,1-2.3-.93,3.37,3.37,0,0,1-1.05-4.64,3.58,3.58,0,0,1,.68-.77,6.38,6.38,0,0,1,7.22-.35A3.38,3.38,0,0,1,230.1,81h-2a.55.55,0,0,1-.35-.33,1.85,1.85,0,0,0-1.59-1.35,6.63,6.63,0,0,0-2.22.11,1.52,1.52,0,0,0-1.18,1.46,1.39,1.39,0,0,0,1,1.44c1.06.36,2.17.58,3.22,1a7.16,7.16,0,0,1,2.26,1.17,3.59,3.59,0,0,1,.19,5.07,3.66,3.66,0,0,1-1.57,1,7.41,7.41,0,0,1-5.68-.14A3.68,3.68,0,0,1,219.9,86.83Z"/><path d="M209,87.21h2.07a.65.65,0,0,1,.42.39,1.73,1.73,0,0,0,2,1.35,1.69,1.69,0,0,0,1.68-1.56,5.47,5.47,0,0,0,0-.81v-9.2h2.43a2.32,2.32,0,0,1,.06.38v9A3.8,3.8,0,0,1,215,90.7a4.86,4.86,0,0,1-5.29-1.19A3.29,3.29,0,0,1,209,87.21Z"/><path d="M205.71,91a1.45,1.45,0,1,1-.24-2.89,1,1,0,0,1,.24,0,1.43,1.43,0,0,1,1.47,1.41v0A1.46,1.46,0,0,1,205.71,91Z"/></svg>