<svg id="Layer_1" data-name="Layer 1" xmlns="http://www.w3.org/2000/svg" viewBox="0 0 300 150"><defs><style>.cls-1{fill:#5db1f4;}.cls-2{fill:#f7f7f9;}</style></defs><rect class="cls-1" width="300" height="150"/><path class="cls-2" d="M126.81,120.19a1.47,1.47,0,0,1-.8-.31c.2-.85,1-1.21,1.51-1.81a3.59,3.59,0,0,0,1.07-1.66,8.76,8.76,0,0,0,4.68-.33,37.65,37.65,0,0,0,13.09-8.48c.65-.65.58-1,0-1.64a55.29,55.29,0,0,1-5-6,11.23,11.23,0,0,1,2.82-3c1.7,2.07,3.38,4.16,5.15,6.17.53.6.8.49,1.26,0,1.83-2.1,3.65-4.21,5.3-6.45.22-.3.58-.53.55-1q-6.37.27-12.72,0a.34.34,0,0,0-.39.22c-1.23.65-2,1.82-3.15,2.58l-.46-.61a.44.44,0,0,0,.17-.07c2-1.69,3.5-3.79,5.4-5.54a.79.79,0,0,0,.18-.63h1.75a117.23,117.23,0,0,0,11.85-.33,1.22,1.22,0,0,0,1-.56,123.66,123.66,0,0,0,8.51-15.15,1.11,1.11,0,0,0,0-1.09,121.6,121.6,0,0,0-8.41-15,1.6,1.6,0,0,0-1.12-.8c-.15-.48.31-.85.3-1.51-.57.65-1.28.82-1.65,1.45L156,58.56c0-.42.25-.64.49-.89L160.22,54c.24-.24.44-.57.84-.59a3.2,3.2,0,0,0,2.69,1.66,70.78,70.78,0,0,1,10.7,1.82c.69.17,1,0,1.1-.76.41-2,.82-4.06,1-6.11a28,28,0,0,0-.52-11.28c-.61-2.07-1.59-3.93-3.76-4.78a8.24,8.24,0,0,0-6.15.26,46.35,46.35,0,0,0-5.84,2.85c-.33-1.16-.43-1.19-1.31-.39-.21.2-.36.54-.9.43l2.63-2.93a5.41,5.41,0,0,0,1.52-2.75,16.8,16.8,0,0,1,6.9-2.14,10.14,10.14,0,0,1,10.22,6.43A20.31,20.31,0,0,1,181,42.58a47.15,47.15,0,0,1-1.37,14.35c-.21.93-.06,1.29.91,1.6a44.62,44.62,0,0,1,12.41,5.79c2.82,2,5.27,4.31,6.43,7.7.19.54.34,1.09.51,1.64v2.92a14.54,14.54,0,0,1-4.14,6.88,31,31,0,0,1-7.93,5.23,52,52,0,0,1-7.61,2.94c-.59.18-.81.36-.64,1.06A52.77,52.77,0,0,1,181.1,105a25.62,25.62,0,0,1-1.2,8c-2.28,6.81-8.24,9.17-14.61,6.87a38,38,0,0,1-14.58-9.43c-.56-.58-.86-.62-1.42,0a38.06,38.06,0,0,1-7.95,6.22,30.37,30.37,0,0,1-7.44,3.47,10.58,10.58,0,0,1-6.3.23c0-.28,0-.62-.34-.69S126.85,119.93,126.81,120.19Zm50.09-15.48a54.1,54.1,0,0,0-1.31-10.6c-.21-1-.57-1.08-1.44-.87a84.49,84.49,0,0,1-11.3,1.85,1.3,1.3,0,0,0-1,.6,95.28,95.28,0,0,1-8.43,10.57c-.42.45-.33.75.07,1.13.92.9,1.84,1.81,2.84,2.63A34.88,34.88,0,0,0,167,116.13c4.06,1.39,7.42-.21,8.87-4.23A20.37,20.37,0,0,0,176.9,104.71Zm18.82-29.79s0-.21-.05-.37c-.32-2.63-2-4.38-3.94-5.92-3.8-3-8.27-4.76-12.84-6.27-.59-.2-.71.09-.84.54a97.63,97.63,0,0,1-4.24,11.37,1.59,1.59,0,0,0-.06,1.38,107.78,107.78,0,0,1,4.33,11.69c.15.52.39.48.78.35,1.49-.54,3-1,4.48-1.61,3.76-1.55,7.39-3.34,10.22-6.39A7.28,7.28,0,0,0,195.72,74.92ZM165.19,90.63c.73-.09,1.28-.15,1.81-.25,1.85-.33,3.69-.66,5.53-1s1.76-.39,1.18-2.1c-.8-2.36-1.66-4.69-2.59-7.32C169.36,83.77,167.16,87,165.19,90.63Zm-.06-31.24c2.24,3.52,4.07,7,6,10.59,1.15-2.8,2.08-5.49,2.92-8.21.11-.34.27-.66-.3-.79C171,60.32,168.18,59.82,165.13,59.39Z"/><path class="cls-2" d="M162.27,31.42a5.41,5.41,0,0,1-1.52,2.75l-2.63,2.93c.54.11.69-.23.9-.43.88-.8,1-.77,1.31.39a8.17,8.17,0,0,1-.69.51,33.73,33.73,0,0,0-6.29,5c-.39.37-.47.63-.1,1.12,1,1.33,2.3,2.35,3.29,3.67a73.58,73.58,0,0,1,4.52,6c-.4,0-.6.35-.84.59l-3.69,3.68c-.24.25-.54.47-.49.89-1.55,0-3.11-.09-4.66-.11a101.26,101.26,0,0,0-10.59.34,1.14,1.14,0,0,0-.94.54,123.15,123.15,0,0,0-8.49,15.06,1.36,1.36,0,0,0,0,1.27,114.93,114.93,0,0,0,8.47,15,1.08,1.08,0,0,0,.93.56c1.59.1,3.17.23,4.75.35a.79.79,0,0,1-.18.63c-1.9,1.75-3.44,3.85-5.4,5.54a.44.44,0,0,1-.17.07c-.52-.7-1.05-1.4-1.56-2.11a1.28,1.28,0,0,0-1-.64,85.34,85.34,0,0,1-11.57-1.9c-.73-.16-1,0-1.18.77-1.11,5.22-1.89,10.46-.93,15.79.55,3.06,1.74,5.69,5.07,6.66a3.59,3.59,0,0,1-1.07,1.66c-.51.6-1.31,1-1.51,1.81a9.84,9.84,0,0,1-5.6-6A25.86,25.86,0,0,1,119,103a58.53,58.53,0,0,1,1.5-10.37c.13-.6,0-.76-.55-.94a49.86,49.86,0,0,1-11-4.73,21.91,21.91,0,0,1-6.61-5.66,10,10,0,0,1,.53-13.2,28.21,28.21,0,0,1,9.68-6.89,52.17,52.17,0,0,1,7.34-2.82c.54-.16.69-.35.55-.95A53.54,53.54,0,0,1,118.89,45a24.9,24.9,0,0,1,1.37-8.5c2.08-5.68,7.49-8.54,13.27-6.77a33,33,0,0,1,11,5.73c1.74,1.37,3.42,2.79,5,4.31.52.49.74.24,1.08-.12a38.65,38.65,0,0,1,10.72-7.82C161.62,31.68,162,31.56,162.27,31.42ZM123.1,45.21A67.26,67.26,0,0,0,124.31,56c.14.92.53,1.1,1.43.88A78,78,0,0,1,137.21,55a1.19,1.19,0,0,0,.95-.57,91.78,91.78,0,0,1,8.36-10.49c.5-.54.44-.91-.08-1.36-.72-.6-1.39-1.26-2.09-1.89A31.63,31.63,0,0,0,133.15,34c-4.18-1.41-7.72-.19-9.16,4.49A21.21,21.21,0,0,0,123.1,45.21ZM104.28,75a9.45,9.45,0,0,0,.4,2,10.56,10.56,0,0,0,3.44,4.29c3.83,3.07,8.31,4.86,12.93,6.35.64.21.77-.16.92-.64a100.36,100.36,0,0,1,4.27-11.37,1.43,1.43,0,0,0,0-1.29A95.4,95.4,0,0,1,122,63c-.19-.65-.53-.74-1.06-.57a50,50,0,0,0-9.52,4.08,20,20,0,0,0-5.1,4A7.27,7.27,0,0,0,104.28,75Zm52.38-20.56c-.21-.36-.3-.53-.41-.68-1.76-2.37-3.68-4.61-5.6-6.84-.61-.71-1-.6-1.51,0-1.4,1.78-2.84,3.52-4.24,5.3a10,10,0,0,0-1.5,2.16A93.16,93.16,0,0,1,156.66,54.45ZM128.9,70c1.83-3.69,3.77-7.11,5.93-10.58A85.75,85.75,0,0,0,126.35,61c-.5.12-.56.31-.42.74A82.35,82.35,0,0,0,128.9,70Zm5.93,20.62c-2.18-3.47-4.1-6.92-6-10.58-1.14,2.84-2.09,5.51-2.93,8.24-.11.36-.23.65.33.79C129,89.72,131.83,90.22,134.83,90.62Z"/><path class="cls-2" d="M126.81,120.19c0-.26.13-.54.45-.48s.33.41.34.69A1.23,1.23,0,0,1,126.81,120.19Z"/><path class="cls-2" d="M143.38,95.87a4,4,0,0,1,.85,1.12,11.23,11.23,0,0,0-2.82,3,5.74,5.74,0,0,1-1.18-1.55C141.36,97.69,142.15,96.52,143.38,95.87Z"/><path class="cls-2" d="M159.14,58.69l-1.35-.06c.37-.63,1.08-.8,1.65-1.45C159.45,57.84,159,58.21,159.14,58.69Z"/><path class="cls-2" d="M142,77a1,1,0,0,1-.15-.79,1.3,1.3,0,0,0,.43-.18c2.46-2.44,5-4.8,7.21-7.45.46-.55,1.18-.94,1.31-1.75a8.27,8.27,0,0,1,3.48,15.34,8.07,8.07,0,0,1-9.83-1c.57-.2.72-.79,1.08-1.19.55-.62.6-1.6,1.44-2l.46.35a4.15,4.15,0,0,0,6.71-3.61,5.07,5.07,0,0,0-1.07-2.53,6.81,6.81,0,0,0,1.66-2.7c-.65.09-.83.52-1.15.77-.49.39-.78,1-1.49,1.16a8.76,8.76,0,0,0-1.87-.5l.07-1.19c-.45.41-1.23.47-1.25,1.27a4.62,4.62,0,0,0-3,2.78c-.56-.12-.77.37-1.1.65C143.91,75.2,143.22,76.4,142,77Z"/><path class="cls-2" d="M150.78,66.81c-.13.81-.85,1.2-1.31,1.75-2.22,2.65-4.75,5-7.21,7.45a1.3,1.3,0,0,1-.43.18A8.16,8.16,0,0,1,150.78,66.81Z"/><path class="cls-2" d="M142,77c1.24-.58,1.93-1.78,2.94-2.62.33-.28.54-.77,1.1-.65a4.63,4.63,0,0,0,.93,4.2c-.84.41-.89,1.39-1.44,2-.36.4-.51,1-1.08,1.19A6.89,6.89,0,0,1,142,77Z"/><path class="cls-2" d="M153.05,72.12l-1-.77c.71-.11,1-.77,1.49-1.16.32-.25.5-.68,1.15-.77A6.81,6.81,0,0,1,153.05,72.12Z"/><path class="cls-2" d="M150.2,70.85l-1.18.08c0-.8.8-.86,1.25-1.27Z"/></svg>