<svg id="Layer_1" data-name="Layer 1" xmlns="http://www.w3.org/2000/svg" viewBox="0 0 300 150"><defs><style>.cls-1{fill:#38bdf8;}</style></defs><rect x="-1.18" y="-0.15" width="301.91" height="150"/><path class="cls-1" d="M150,33.43q-27.7,0-34.64,27.71,10.4-13.85,24.25-10.39c5.27,1.32,9,5.14,13.21,9.38C159.61,67,167.47,75,184.64,75q27.71,0,34.64-27.71Q208.89,61.15,195,57.68c-5.27-1.32-9-5.14-13.2-9.37C175,41.41,167.17,33.43,150,33.43ZM115.36,75q-27.7,0-34.64,27.71Q91.12,88.85,105,92.32c5.27,1.32,9,5.14,13.2,9.37,6.8,6.9,14.66,14.88,31.83,14.88q27.7,0,34.64-27.71-10.39,13.85-24.25,10.39c-5.27-1.32-9-5.14-13.21-9.38C140.39,83,132.53,75,115.36,75Z"/></svg>