<svg id="Layer_1" data-name="Layer 1" xmlns="http://www.w3.org/2000/svg" viewBox="0 0 300 150"><defs><style>.cls-1{fill:#fff;}</style></defs><rect x="-1.18" y="-0.15" width="301.91" height="150"/><path class="cls-1" d="M111.26,75a38.75,38.75,0,0,0,21.83,34.86L114.61,59.23A38.61,38.61,0,0,0,111.26,75Z"/><path class="cls-1" d="M176.14,73.05A20.37,20.37,0,0,0,173,62.36c-2-3.19-3.81-5.9-3.81-9.08a6.72,6.72,0,0,1,6.51-6.88h.5a38.73,38.73,0,0,0-54.72,2.42,37.34,37.34,0,0,0-3.8,4.88c.9,0,1.77,0,2.49,0,4,0,10.32-.49,10.32-.49a1.6,1.6,0,1,1,.25,3.19s-2.1.25-4.42.37l14.1,42,8.47-25.43-6-16.53c-2.09-.13-4.07-.37-4.07-.37a1.6,1.6,0,0,1,.25-3.19s6.4.49,10.21.49c4,0,10.32-.49,10.32-.49a1.6,1.6,0,1,1,.25,3.19s-2.1.24-4.43.37l14,41.64,3.85-12.91C174.86,80.21,176.14,76.36,176.14,73.05Z"/><path class="cls-1" d="M150.67,78.39l-11.62,33.77a38.74,38.74,0,0,0,23.81-.61,4.63,4.63,0,0,1-.28-.54Z"/><path class="cls-1" d="M184,56.42a31.17,31.17,0,0,1,.26,4,36.59,36.59,0,0,1-2.95,13.87l-11.8,34.22A38.75,38.75,0,0,0,184,56.42Z"/><path class="cls-1" d="M150,29.85A45.15,45.15,0,1,0,195.15,75,45.14,45.14,0,0,0,150,29.85Zm0,88.23A43.08,43.08,0,1,1,193.08,75,43.08,43.08,0,0,1,150,118.08Z"/></svg>